<?xml version="1.0" encoding="UTF-8"?>
<svg width="128" height="128" viewBox="0 0 128 128" xmlns="http://www.w3.org/2000/svg">
  <!-- Background circle -->
  <circle cx="64" cy="64" r="60" fill="#2563eb"/>
  
  <!-- Book/page icon -->
  <path d="M40 38v52c0 2.2 1.8 4 4 4h40c2.2 0 4-1.8 4-4V38c0-2.2-1.8-4-4-4H44c-2.2 0-4 1.8-4 4z" 
        fill="white"/>
  
  <!-- Text lines -->
  <rect x="48" y="44" width="32" height="4" rx="2" fill="#2563eb"/>
  <rect x="48" y="54" width="24" height="4" rx="2" fill="#2563eb"/>
  <rect x="48" y="64" width="28" height="4" rx="2" fill="#2563eb"/>
  
  <!-- AI symbol -->
  <path d="M76 74c-5.5 0-10 4.5-10 10s4.5 10 10 10 10-4.5 10-10-4.5-10-10-10z" 
        fill="#2563eb" stroke="white" stroke-width="2"/>
  <path d="M79 80l-6 8M73 80l6 8" stroke="white" stroke-width="2" stroke-linecap="round"/>
</svg>